<svg width="1280" height="640" viewBox="0 0 1280 640" fill="none" xmlns="http://www.w3.org/2000/svg">
<path d="M251.787 398L207.047 241.636H243.16L269.042 350.282H270.34L298.895 241.636H329.816L358.295 350.511H359.669L385.551 241.636H421.665L376.924 398H344.705L314.928 295.768H313.707L284.007 398H251.787Z" fill="#FF8800"/>
<path d="M479.595 400.29C467.532 400.29 457.148 397.847 448.444 392.961C439.791 388.024 433.124 381.05 428.441 372.041C423.758 362.981 421.417 352.267 421.417 339.898C421.417 327.835 423.758 317.248 428.441 308.137C433.124 299.026 439.715 291.925 448.215 286.835C456.766 281.745 466.794 279.2 478.297 279.2C486.034 279.2 493.236 280.447 499.904 282.941C506.623 285.385 512.476 289.075 517.464 294.012C522.503 298.949 526.423 305.159 529.222 312.641C532.021 320.073 533.421 328.777 533.421 338.753V347.686H434.396V327.529H502.805C502.805 322.847 501.787 318.698 499.751 315.085C497.715 311.471 494.89 308.646 491.276 306.61C487.713 304.523 483.565 303.479 478.831 303.479C473.894 303.479 469.517 304.625 465.699 306.915C461.933 309.155 458.981 312.183 456.843 316.001C454.705 319.767 453.611 323.966 453.56 328.598V347.762C453.56 353.565 454.629 358.578 456.766 362.803C458.955 367.028 462.035 370.285 466.005 372.576C469.975 374.866 474.683 376.011 480.129 376.011C483.743 376.011 487.052 375.502 490.055 374.484C493.058 373.466 495.628 371.939 497.766 369.903C499.904 367.867 501.533 365.373 502.652 362.421L532.734 364.406C531.207 371.634 528.077 377.946 523.343 383.341C518.66 388.685 512.603 392.859 505.172 395.862C497.792 398.814 489.266 400.29 479.595 400.29Z" fill="#FF8800"/>
<path d="M556 437V241.835L587.782 241.636V300.425H588.775C590.2 297.27 592.261 294.063 594.959 290.805C597.707 287.497 601.27 284.748 605.648 282.56C610.076 280.32 615.573 279.2 622.139 279.2C630.69 279.2 638.58 281.44 645.808 285.919C653.035 290.347 658.812 297.041 663.139 305.999C667.465 314.906 669.629 326.079 669.629 339.516C669.629 352.598 667.516 363.643 663.292 372.652C659.118 381.61 653.417 388.405 646.189 393.037C639.013 397.618 630.97 399.909 622.063 399.909C615.751 399.909 610.381 398.865 605.953 396.778C601.576 394.692 597.987 392.07 595.188 388.914C592.388 385.708 590.251 382.476 588.775 379.218H587.324V437H556ZM587.095 339.364C587.095 346.337 588.062 352.419 589.996 357.611C591.93 362.803 594.73 366.849 598.395 369.751C602.059 372.601 606.513 374.026 611.756 374.026C617.049 374.026 621.528 372.576 625.193 369.674C628.858 366.722 631.632 362.65 633.515 357.458C635.45 352.216 636.417 346.184 636.417 339.364C636.417 332.594 635.475 326.639 633.592 321.498C631.708 316.357 628.934 312.336 625.27 309.435C621.605 306.533 617.1 305.083 611.756 305.083C606.462 305.083 601.983 306.482 598.318 309.282C594.704 312.081 591.93 316.052 589.996 321.192C588.062 326.333 587.095 332.39 587.095 339.364Z" fill="#FF8800"/>
<path d="M691.942 398V241.636H797.304V268.893H725.001V306.152H791.883V333.408H725.001V370.743H797.609V398H691.942Z" fill="#FF8800"/>
<path d="M817.632 268.893V241.636H946.052V268.893H897V432L865.503 428V268.893H817.632Z" fill="#FF8800"/>
<path d="M967.201 398V241.636H1000.26V370.743H1067.29V398H967.201Z" fill="#FF8800"/>
<rect x="556" y="450" width="32" height="341" rx="7" transform="rotate(-90 556 450)" fill="#FF8800"/>
<path d="M561 445L561 439L892 439L892 445L561 445Z" fill="white" fill-opacity="0.23"/>
<rect x="682" y="412" width="45" height="11" transform="rotate(90 682 412)" fill="#CF6F02"/>
<rect x="822" y="412" width="45" height="11" transform="rotate(90 822 412)" fill="#CF6F02"/>
</svg>
